<?xml version="1.0" encoding="UTF-8"?>
<svg id="Layer_2" data-name="Layer 2" xmlns="http://www.w3.org/2000/svg" viewBox="0 0 559.31 102.02">
  <defs>
    <style>
      .cls-1 {
        fill: #ee3f33;
      }

      .cls-2 {
        fill: #fff;
      }
    </style>
  </defs>
  <g id="Layer_4" data-name="Layer 4">
    <path class="cls-2" d="m79.45,60.75c-.11-.28-.21-.57-.31-.86-.14-.39-.27-.77-.4-1.15,0,0-1.02-3-1.77-6.02-.96-3.89-2.52-10.48-1.93-19.1.34-4.96.85-12.23,4.26-17.69l.03-.12-.02-.05c-.77-1.15-1.58-1.96-2.19-2.49-.83-.72-1.59-1.19-2.05-1.47-.37-.23-.89-.54-1.58-.85-1.86-.83-3.51-.95-3.98-.97-1.32-.07-2.35.13-2.73.21-1.28.27-2.54.8-4.34,2.05-4.2,2.91-6.54,6.39-6.99,7.07-.65.98-1.68,2.57-2.5,4.91-.99,2.82-1.12,5.08-1.14,5.63-.05,1.14.02,2.11.11,2.82.23,2.98.71,6.19,1.55,9.57,3.88,15.56,13.37,26.03,19.49,31.6,1.15-1.85,2.33-3.92,3.47-6.21,1.21-2.43,2.21-4.75,3.03-6.89Z"/>
    <path class="cls-2" d="m102.29,95.18c-7.05-6.76-11.32-13.4-13.85-17.21-.64-.97-1.15-1.76-1.44-2.23-1.99,1.79-3.97,3.57-5.96,5.36,3.25,2.64,7.8,6.22,13.43,10.27,1.23.89,11.13,8.02,11.51,7.55.2-.25-2.17-2.29-3.69-3.74Z"/>
    <path class="cls-1" d="m54.24,18.27c-.42-.34,2.42-5.9,7.08-10.15C63.28,6.33,70.36-.14,80.78,0c14.37.2,22.48,12.82,23.27,14.08,6.6,10.62,4.04,22.05,2.67,28.16-3.97,17.73-16.56,29.07-24.46,36.17-5.2,4.67-12.11,9.72-16.55,12.96-1.37,1-11.12,8.04-11.51,7.55-.2-.25,2.17-2.29,3.69-3.74,6.86-6.57,11.01-12.89,13.85-17.21,3.02-4.6,8.47-13.05,11.48-25.25.96-3.89,2.52-10.48,1.93-19.1-.46-6.62-1.2-17.33-8.74-22.39-.95-.64-3.9-2.62-7.78-2.48-7.93.28-13.79,10-14.38,9.52Z"/>
    <path class="cls-1" d="m54.13,18.27c.42-.34-2.42-5.9-7.08-10.15C45.1,6.33,38.01-.14,27.59,0,13.23.2,5.11,12.82,4.32,14.08-2.28,24.7.29,36.13,1.66,42.25c3.97,17.73,16.56,29.07,24.46,36.17,5.2,4.67,12.11,9.72,16.55,12.96,1.37,1,11.12,8.04,11.51,7.55.2-.25-2.17-2.29-3.69-3.74-6.86-6.57-11.01-12.89-13.85-17.21-3.02-4.6-8.47-13.05-11.48-25.25-.96-3.89-2.52-10.48-1.93-19.1.46-6.62,1.2-17.33,8.74-22.39.95-.64,3.9-2.62,7.78-2.48,7.93.28,13.79,10,14.38,9.52Z"/>
    <path class="cls-2" d="m106.69,16.37s2.35-4.53,6.43-8.25C115.08,6.33,122.17-.14,132.59,0c14.37.2,22.48,12.82,23.27,14.08,6.6,10.62,4.04,22.05,2.67,28.16-3.97,17.73-16.56,29.07-24.46,36.17-5.2,4.67-12.11,9.72-16.55,12.96-1.37,1-11.12,8.04-11.51,7.55-.2-.25,2.17-2.29,3.69-3.74,6.86-6.57,11.01-12.89,13.85-17.21,3.02-4.6,8.47-13.05,11.48-25.25.96-3.89,2.52-10.48,1.93-19.1-.46-6.62-1.2-17.33-8.74-22.39-.95-.64-3.9-2.62-7.78-2.48-5.82.21-10.88,5.95-13.31,8.62h0c-.19-.43-.14-.33-.44-.97v-.03Z"/>
    <path class="cls-2" d="m220.48,7.96c.75-2.42,1.37-3.95,1.86-4.59s1.24-.99,2.25-1.06v-.81h-6.82v.81c1.73,0,2.6.77,2.6,2.32,0,.53-.25,1.64-.76,3.35l-3.82,12.64-7.34-19.11h-1.03l-6.53,19.11-4.46-13.87c-.52-1.59-.77-2.58-.77-2.97,0-.43.16-.77.48-1.01s1.04-.4,2.18-.47v-.81h-9.39v.81c.9.04,1.54.18,1.93.45.39.26.7.67.94,1.23.24.56.63,1.68,1.17,3.36l6.03,18.54h.89l6.66-19.62,7.62,19.62h.83l5.5-17.92Z"/>
    <path class="cls-2" d="m225.47,2.31c1.1,0,1.82.11,2.15.32.33.21.55.59.64,1.14.1.55.14,1.77.14,3.67v11.67c0,1.99-.05,3.26-.14,3.8-.1.54-.32.95-.68,1.2s-1,.39-1.93.39h-.64v.81h9.95v-.81h-.64c-.98,0-1.65-.14-2-.42-.35-.28-.56-.71-.64-1.29-.08-.58-.12-1.81-.12-3.68V7.43c0-1.98.06-3.23.17-3.76.11-.53.33-.89.67-1.08.33-.19,1.03-.29,2.1-.29h.47v-.81h-9.95v.81h.47Z"/>
    <path class="cls-2" d="m254.32,18.3c-.43,1.88-.66,2.45-1.06,3.07-.56.85-1.46,1.48-2.05,1.74-.58.26-1.48.39-2.69.39h-1.49c-1.01-.02-1.03-.15-1.38-.39-.34-.24-.39-.54-.47-.98-.08-.43-.12-.51-.12-2.23V7.43c0-1.98.05-3.23.15-3.76.1-.53.3-.89.6-1.08.3-.19-.07-.29.9-.29h.87v-.81h-9.44v.81h.44c1,0,1.64.11,1.94.32.29.21.49.59.58,1.14.09.55.14,1.77.14,3.67v11.67c0,1.99-.05,3.26-.14,3.8s-.3.95-.62,1.2c-.32.26-.91.39-1.75.39h-.58v.81h16.71l.14-7h-.68Z"/>
    <path class="cls-2" d="m264.35,25.78c1.92,0,3.45-.67,4.59-2,1.15-1.33,1.72-3.06,1.72-5.19,0-1.34-.04-1.63-.52-2.65-.47-1.03-1.66-2.24-2.45-2.82-.79-.58-1.65-1.18-3.52-2.54-1.67-1.22-2-1.65-2.69-2.46-.7-.79-.89-1.39-.89-2.54,0-.95.07-1.41.62-2.21s1.41-1.29,2.3-1.44c1.24-.21,3.8-.35,4.75.74.95,1.09.62,1.4.99,3.29h.65V.46s-5.78-.02-6.63-.02c-1.52,0-3.36.59-4.35,1.77-.99,1.18-1.21,2.28-1.21,4.06,0,1.16.03,2.19.49,3.22s1.1,1.86,1.92,2.5c.82.64,1.79,1.66,3.4,2.52,1.81.95,2.78,1.83,3.46,2.66.68.84.61,2.04.61,3.29s-.49,1.74-.97,2.36c-.28.36-.69.75-1.06.97-.54.33-.93.5-1.41.51-1.37.02-2.92-.16-4.38-1.09-1.35-.86-1.73-3.91-1.68-4.13h-.74v6s4.78.72,6.98.72Z"/>
    <path class="cls-2" d="m294.02,18.66c0,2.04-.05,3.33-.16,3.89-.11.56-.36.97-.76,1.23-.4.26-1.12.4-2.15.4h-.84v.83h11.09v-.83h-.56c-1.09,0-1.83-.14-2.23-.43s-.64-.73-.73-1.32c-.09-.59-.13-1.85-.13-3.76V6.71c0-2.02.06-3.31.19-3.85.13-.54.37-.91.75-1.1.37-.2,1.16-.3,2.35-.3h.36v-.83h-11.09v.83h.65c1.23,0,2.03.11,2.4.32.37.22.6.6.71,1.17.11.56.16,1.82.16,3.76v4.83h-12.72v-4.83c0-2.02.06-3.31.19-3.85s.37-.91.75-1.1c.37-.2,1.15-.3,2.34-.3h.45v-.83h-10.96v.83h.45c1.23,0,2.03.11,2.4.32.37.22.6.6.72,1.17.11.56.17,1.82.17,3.76v11.95c0,2.04-.06,3.33-.17,3.89s-.37.97-.77,1.23c-.4.26-1.12.4-2.17.4h-.63v.83h10.96v-.83h-.63c-1.09,0-1.83-.14-2.22-.43-.39-.29-.63-.73-.73-1.32-.1-.59-.14-1.85-.14-3.76v-5.88h12.72v5.88Z"/>
    <path class="cls-2" d="m304.67,2.01c1.1,0,1.82.11,2.15.32.33.21.55.59.64,1.14.1.55.14,1.77.14,3.67v11.67c0,1.99-.05,3.26-.14,3.8-.1.54-.32.95-.68,1.2s-1,.39-1.93.39h-.64v.81h9.95v-.81h-.64c-.98,0-1.65-.14-2-.42-.35-.28-.56-.71-.64-1.29-.08-.58-.12-1.81-.12-3.68V7.14c0-1.98.06-3.23.17-3.76.11-.53.33-.89.67-1.08.33-.19,1.03-.29,2.1-.29h.47v-.81h-9.95v.81h.47Z"/>
    <path class="cls-2" d="m323.77,2.22c.57-.05,1.07-.07,1.51-.07,2.84,0,3.7.6,4.79,1.36,1.07.75,1.65,2.36,1.65,3.94,0,.97-.04,1.78-.29,2.44-.25.66-.48,1.08-.91,1.49s-.83.66-1.53.87c-.7.21-1.52.34-2.46.39-.95.05-1.86.08-2.75.11V2.22Zm18.17,22.13c-1.42-.05-2.65-.45-3.69-1.21-1.04-.76-2.47-2.36-4.29-4.81-2.23-3.02-3.85-4.77-4.86-5.25,2.24-.27,2.95-.96,4.1-2.08,1.16-1.11,1.74-2.45,1.74-4.03,0-1.35-.44-2.51-1.33-3.48-.89-.97-2.05-1.67-3.48-2.09-1.44-.43-2.3-.64-4.59-.64-1.35,0-3.17.05-5.46.16l-3.44.18v.82h.41c1.22,0,2.01.11,2.38.32s.6.6.71,1.15c.11.56.16,1.79.16,3.71v11.8c0,2.01-.05,3.29-.16,3.84-.11.55-.36.96-.75,1.22-.4.26-1.11.39-2.14.39h-.78v.82h11.5v-.82h-1.15c-1.09,0-1.82-.14-2.21-.43-.38-.28-.62-.72-.71-1.3-.09-.59-.13-1.82-.13-3.72v-5.34h.96c.65,0,1.13.11,1.44.33.31.22.87.83,1.68,1.83.82,1,1.6,2.04,2.36,3.13,2.36,3.41,4.12,5.51,5.26,6.32h6.47v-.82Z"/>
    <path class="cls-2" d="m354.49,22.34c-.67,1.03-.81,1.2-1.46,1.65-.48.33-.69.32-1.49.34h-1.62c-1.46,0-2.35-.26-2.68-.77s-.5-2.22-.5-5.13v-5.81h4.39c.93,0,1.59.07,1.98.21.39.14.69.44.89.91.2.47.3,1.38.3,2.74h.75l-.03-6.84h-.75c-.02.76-.03.65-.16,1.06-.13.42-.41.53-.84.74-.42.21-1.16.31-2.22.31h-4.31V1.44h3.02c1.52,0,1.62.09,2.31.28.68.19,1.54.54,2.04,1.26s.65,1.23.99,2.75h.75l-.51-5.12h-14.55v.83c1.05,0,1.74.12,2.06.35.33.24.54.65.63,1.24.09.59.14,1.82.14,3.69v12.04c0,2.05-.04,3.33-.13,3.83-.09.5-.29.91-.6,1.24-.32.33-1.01.49-2.09.49h-.45v.83h16.02l.11-5.55h-1.02c-.21,1.06-.55,2.08-.96,2.73Z"/>
    <path class="cls-2" d="m211.81,60.31c.34-.88.7-1.89.95-3.01.27-1.2.39-2.12.45-3.48h-.79c-.46,1.32-.34,1.08-1.09,2.57-.56,1.11-1.13,1.67-2.05,2.29-.47.32-1.1.38-1.26.43-.5.15-1.49.3-3.5.25-1.88-.05-3.2-.08-4.73-.84-.21-.1-1.24-.62-2.17-1.58-2.42-2.46-2.53-6.02-2.53-8.21,0-3.77.77-6.66,2.31-8.69,1.54-2.02,3.62-3.04,6.24-3.04,2.14,0,4.06.63,5.76,1.88s2.09,1.57,3.38,4.69h.79l-.22-7.02c-.19,0-.47,0-.81,0-4.85-.03-6.02-.56-9.44-.44-.22,0-2.72.11-4.63.79-.84.3-1.6.71-1.6.71-1.89,1.01-3.37,2.55-4.43,4.62-1.06,2.08-1.59,4.29-1.59,6.64,0,3.58,1.15,6.46,3.44,8.64,0,0,.88.84,1.95,1.49,1.65,1,3.89,1.56,6.91,1.77,2.08.14,5.06.16,8.66-.47Z"/>
    <path class="cls-2" d="m219.56,50.78l4.41-10.15,4.43,10.15h-8.83Zm11.07,5.2c.57,1.28.85,2.04.85,2.3,0,.5-.21.84-.64,1.01-.42.17-1.24.25-2.44.25v.81h9.83v-.81c-.87-.08-1.53-.28-1.96-.61-.44-.32-.78-.76-1.04-1.33l-1.14-2.49-8.36-18.9h-.72l-7.27,16.52c-.53,1.18-.82,1.86-.89,2.04-.76,1.86-1.41,3.08-1.96,3.66-.54.58-1.37.95-2.47,1.11v.81h7.43v-.81c-.8,0-1.45-.18-1.96-.55s-.77-.91-.77-1.62c0-.67.48-2.09,1.44-4.28l.65-1.51h9.5l1.92,4.41Z"/>
    <path class="cls-2" d="m244.02,37.4c.57-.05,1.07-.07,1.51-.07,2.84,0,3.7.6,4.79,1.36,1.07.75,1.65,2.36,1.65,3.94,0,.97-.04,1.78-.29,2.44-.25.66-.48,1.08-.91,1.49s-.83.66-1.53.87c-.7.21-1.52.34-2.46.39-.95.05-1.86.08-2.75.11v-10.52Zm18.17,22.13c-1.42-.05-2.65-.45-3.69-1.21-1.04-.76-2.47-2.36-4.29-4.81-2.23-3.02-3.85-4.77-4.86-5.25,2.24-.27,2.95-.96,4.1-2.08,1.16-1.11,1.74-2.45,1.74-4.03,0-1.35-.44-2.51-1.33-3.48-.89-.97-2.05-1.67-3.48-2.09-1.44-.43-2.3-.64-4.59-.64-1.35,0-3.17.05-5.46.16l-3.44.18v.82h.41c1.22,0,2.01.11,2.38.32s.6.6.71,1.15c.11.56.16,1.79.16,3.71v11.8c0,2.01-.05,3.29-.16,3.84-.11.55-.36.96-.75,1.22-.4.26-1.11.39-2.14.39h-.78v.82h11.5v-.82h-1.15c-1.09,0-1.82-.14-2.21-.43-.38-.28-.62-.72-.71-1.3-.09-.59-.13-1.82-.13-3.72v-5.34h.96c.65,0,1.13.11,1.44.33.31.22.87.83,1.68,1.83.82,1,1.6,2.04,2.36,3.13,2.36,3.41,4.12,5.51,5.26,6.32h6.47v-.82Z"/>
    <path class="cls-2" d="m270.71,37.14c1.94,0,3.53.18,4.78.54s2.37,1.03,3.39,2.02c1.02.99,1.8,2.27,2.35,3.85.55,1.58.82,3.38.82,5.39,0,2.59-.47,4.71-1.41,6.38-.94,1.67-2.11,2.79-3.51,3.35-1.4.57-3.19.85-5.37.85-1.49,0-2.46-.14-2.92-.41-.46-.27-.74-.75-.83-1.43-.09-.68-.14-2.19-.14-4.55v-15.9c.96-.06,1.91-.09,2.84-.09Zm-10.55.4h.74c1.27,0,2.09.1,2.46.31s.62.58.74,1.14c.12.56.18,1.78.18,3.68v11.48c0,1.99-.06,3.26-.18,3.8-.12.54-.38.95-.79,1.2-.41.26-1.15.39-2.22.39h-1.03v.81h11.08c2.08,0,3.69-.06,4.83-.18,1.14-.12,2.35-.43,3.62-.93,1.27-.5,2.39-1.22,3.36-2.18s1.72-2.15,2.28-3.6c.55-1.45.83-3.04.83-4.78,0-2.41-.51-4.54-1.52-6.38-1.01-1.84-2.56-3.3-4.64-4.38-2.08-1.08-4.97-1.61-8.69-1.61-1.19,0-3.5.08-6.94.25l-4.11.19v.81Z"/>
    <path class="cls-2" d="m289.62,37.35c1.1,0,1.82.11,2.15.32.33.21.55.59.64,1.14.1.55.14,1.77.14,3.67v11.67c0,1.99-.05,3.26-.14,3.8-.1.54-.32.95-.68,1.2s-1,.39-1.93.39h-.64v.81h9.95v-.81h-.64c-.98,0-1.65-.14-2-.42-.35-.28-.56-.71-.64-1.29-.08-.58-.12-1.81-.12-3.68v-11.67c0-1.98.06-3.23.17-3.76.11-.53.33-.89.67-1.08.33-.19,1.03-.29,2.1-.29h.47v-.81h-9.95v.81h.47Z"/>
    <path class="cls-2" d="m308.5,39.87c1.54-1.92,3.77-2.89,6.67-2.89s5.19.99,6.74,2.96c1.55,1.97,2.32,4.81,2.32,8.5s-.79,6.66-2.36,8.58c-1.57,1.92-3.72,2.88-6.43,2.88-3.09,0-5.4-.96-6.95-2.88-1.54-1.92-2.32-4.79-2.32-8.62s.77-6.61,2.32-8.54Zm-2.71,17.49c2.45,2.28,5.58,3.42,9.41,3.42s7.1-1.14,9.5-3.42c2.41-2.28,3.61-5.27,3.61-8.95s-1.26-6.8-3.77-9c-2.51-2.2-5.65-3.3-9.4-3.3s-6.82,1.11-9.3,3.33-3.73,5.17-3.73,8.85,1.22,6.79,3.67,9.07Z"/>
    <path class="cls-2" d="m346.47,53.34c-.43,1.88-.66,2.45-1.06,3.07-.56.85-1.46,1.48-2.05,1.74-.58.26-1.48.39-2.69.39h-1.49c-1.01-.02-1.03-.15-1.38-.39-.34-.24-.39-.54-.47-.98-.08-.43-.12-.51-.12-2.23v-12.46c0-1.98.05-3.23.15-3.76.1-.53.3-.89.6-1.08.3-.19-.07-.29.9-.29h.87v-.81h-9.44v.81h.44c1,0,1.64.11,1.94.32.29.21.49.59.58,1.14.09.55.14,1.77.14,3.67v11.67c0,1.99-.05,3.26-.14,3.8s-.3.95-.62,1.2c-.32.26-.91.39-1.75.39h-.58v.81h16.71l.14-7h-.68Z"/>
    <path class="cls-2" d="m354.48,39.87c1.54-1.92,3.77-2.89,6.67-2.89s5.19.99,6.74,2.96c1.55,1.97,2.32,4.81,2.32,8.5s-.79,6.66-2.36,8.58c-1.57,1.92-3.72,2.88-6.43,2.88-3.09,0-5.4-.96-6.95-2.88-1.54-1.92-2.32-4.79-2.32-8.62s.77-6.61,2.32-8.54Zm-2.71,17.49c2.45,2.28,5.58,3.42,9.41,3.42s7.1-1.14,9.5-3.42c2.41-2.28,3.61-5.27,3.61-8.95s-1.26-6.8-3.77-9c-2.51-2.2-5.65-3.3-9.4-3.3s-6.82,1.11-9.3,3.33-3.73,5.17-3.73,8.85,1.22,6.79,3.67,9.07Z"/>
    <path class="cls-2" d="m397.79,60.08c.62-.35,1.37-.91,1.58-1.17v-2.53c0-2.05.06-3.34.2-3.87.13-.53.4-1.91.81-2.14s1.19-.34,2.33-.34v-.84h-10.38v.84h.57c.95,0,1.6.07,1.95.22.35.15.62.43.79.86.17.43.26,2.28.26,3.55,0,1.09-.18,1.99-.55,2.7-.37.71-1.05,1.32-2.06,1.82-1.01.5-1.69.46-2.92.46-2.4,0-4.85-.59-6.47-2.35-1.62-1.76-2.43-4.75-2.43-8.98s.84-7.18,2.52-8.85,3.06-2.15,5.32-2.15,4.64.38,6.17,1.8,2.47,3.36,2.81,5.81h.85v-7.95c-2.02-.61-5.28-1.36-10.82-.98-2.99.2-4.61,1.46-5.06,1.74-.33.21-1.47.92-2.59,2.23-2.18,2.56-3.27,5.55-3.27,8.95s1.14,6.28,3.43,8.52c.29.29,1.29,1.24,2.8,2.04.67.36,2.59,1.54,6.14,1.76,4.04.25,7.22-.69,8.01-1.14Z"/>
    <path class="cls-2" d="m408.55,40.54c-.58-.98-.87-1.64-.87-1.97,0-.82.88-1.23,2.63-1.23v-.81h-9.38v.81c1,.02,1.69.23,2.08.61.39.38,1.17,1.55,2.34,3.52l5.77,9.74v2.93c0,1.99-.05,3.26-.15,3.8-.1.54-.34.95-.73,1.2-.38.26-1.07.39-2.06.39h-.38v.81h9.86v-.81c-1.15,0-1.92-.11-2.31-.34-.39-.23-.65-.62-.77-1.18-.12-.56-.18-1.85-.18-3.87v-3.16l5.19-8.9c1-1.71,1.82-2.89,2.47-3.54s1.49-1.05,2.53-1.2v-.81h-7.56v.81c1.02,0,1.73.21,2.13.61.4.41.6.86.6,1.35,0,.54-.38,1.45-1.13,2.74l-4.56,7.88-5.53-9.39Z"/>
    <path class="cls-2" d="m457.54,60.08c.62-.35,1.37-.91,1.58-1.17v-2.53c0-2.05.06-3.34.2-3.87.13-.53.4-1.91.81-2.14s1.19-.34,2.33-.34v-.84h-10.38v.84h.57c.95,0,1.6.07,1.95.22.35.15.62.43.79.86.17.43.26,2.28.26,3.55,0,1.09-.18,1.99-.55,2.7-.37.71-1.05,1.32-2.06,1.82-1.01.5-1.69.46-2.92.46-2.4,0-4.85-.59-6.47-2.35-1.62-1.76-2.43-4.75-2.43-8.98s.84-7.18,2.52-8.85,3.06-2.15,5.32-2.15,4.64.38,6.17,1.8,2.47,3.36,2.81,5.81h.85v-7.95c-2.02-.61-5.28-1.36-10.82-.98-2.99.2-4.61,1.46-5.06,1.74-.33.21-1.47.92-2.59,2.23-2.18,2.56-3.27,5.55-3.27,8.95s1.14,6.28,3.43,8.52c.29.29,1.29,1.24,2.8,2.04.67.36,2.59,1.54,6.14,1.76,4.04.25,7.22-.69,8.01-1.14Z"/>
    <path class="cls-2" d="m471.25,37.83c.57-.05,1.07-.07,1.51-.07,2.84,0,3.7.6,4.79,1.36,1.07.75,1.65,2.36,1.65,3.94,0,.97-.04,1.78-.29,2.44-.25.66-.48,1.08-.91,1.49s-.83.66-1.53.87c-.7.21-1.52.34-2.46.39-.95.05-1.86.08-2.75.11v-10.52Zm18.17,22.13c-1.42-.05-2.65-.45-3.69-1.21-1.04-.76-2.47-2.36-4.29-4.81-2.23-3.02-3.85-4.77-4.86-5.25,2.24-.27,2.95-.96,4.1-2.08,1.16-1.11,1.74-2.45,1.74-4.03,0-1.35-.44-2.51-1.33-3.48-.89-.97-2.05-1.67-3.48-2.09-1.44-.43-2.3-.64-4.59-.64-1.35,0-3.17.05-5.46.16l-3.44.18v.82h.41c1.22,0,2.01.11,2.38.32s.6.6.71,1.15c.11.56.16,1.79.16,3.71v11.8c0,2.01-.05,3.29-.16,3.84-.11.55-.36.96-.75,1.22-.4.26-1.11.39-2.14.39h-.78v.82h11.5v-.82h-1.15c-1.09,0-1.82-.14-2.21-.43-.38-.28-.62-.72-.71-1.3-.09-.59-.13-1.82-.13-3.72v-5.34h.96c.65,0,1.13.11,1.44.33.31.22.87.83,1.68,1.83.82,1,1.6,2.04,2.36,3.13,2.36,3.41,4.12,5.51,5.26,6.32h6.47v-.82Z"/>
    <path class="cls-2" d="m492.59,39.87c1.54-1.92,3.77-2.89,6.67-2.89s5.19.99,6.74,2.96c1.55,1.97,2.32,4.81,2.32,8.5s-.79,6.66-2.36,8.58c-1.57,1.92-3.72,2.88-6.43,2.88-3.09,0-5.4-.96-6.95-2.88-1.54-1.92-2.32-4.79-2.32-8.62s.77-6.61,2.32-8.54Zm-2.71,17.49c2.45,2.28,5.58,3.42,9.41,3.42s7.1-1.14,9.5-3.42c2.41-2.28,3.61-5.27,3.61-8.95s-1.26-6.8-3.77-9c-2.51-2.2-5.65-3.3-9.4-3.3s-6.82,1.11-9.3,3.33-3.73,5.17-3.73,8.85,1.22,6.79,3.67,9.07Z"/>
    <path class="cls-2" d="m531.61,37.35c1.1.07,1.91.26,2.41.58.51.32.84.74.99,1.28s.23,1.48.23,2.83v8.11c0,1.85-.07,3.2-.2,4.06-.13.86-.49,1.7-1.07,2.51-.59.81-1.48,1.49-2.68,2.04-1.2.54-2.54.82-4,.82-1.87,0-3.37-.41-4.49-1.22-1.12-.81-1.81-1.76-2.05-2.85-.24-1.09-.36-2.93-.36-5.53v-7.49c0-1.98.06-3.23.19-3.76s.37-.89.74-1.08c.37-.19,1.14-.29,2.32-.29h.48v-.81h-10.99v.81h.55c1.22,0,2.01.11,2.37.32.36.21.6.59.71,1.14.11.55.17,1.77.17,3.67v7.41l-.02,2.44c0,1.92.32,3.45.95,4.59.63,1.14,1.69,2.07,3.18,2.79s3.3,1.08,5.44,1.08c1.81,0,3.41-.28,4.79-.84,1.38-.56,2.46-1.32,3.22-2.26s1.22-1.91,1.38-2.9.24-2.49.24-4.51v-7.92c0-1.45.06-2.43.18-2.93.12-.5.44-.96.97-1.36.53-.4,1.32-.64,2.39-.71v-.81h-8.04v.81Z"/>
    <path class="cls-2" d="m548.36,37.24c.4-.05.96-.07,1.71-.07,2.03,0,3.5.46,4.4,1.38.9.92,1.36,2.36,1.36,4.33,0,1.29-.26,2.37-.79,3.25-.53.88-1.18,1.45-1.97,1.73-.79.27-1.83.41-3.11.41h-1.6v-11.02Zm2.45,11.9c2.56,0,4.34-.26,5.35-.77,1.01-.51,1.79-1.27,2.34-2.26.54-.99.81-2.14.81-3.44,0-1.5-.4-2.74-1.19-3.72-.8-.98-1.81-1.67-3.06-2.05-1.24-.39-3.02-.58-5.32-.58-1.25,0-2.99.04-5.23.12l-2.8.11v.81h.41c1.13,0,1.86.11,2.2.32.34.21.56.59.66,1.14.1.55.15,1.77.15,3.67v11.67c0,1.99-.05,3.26-.15,3.8-.1.54-.33.95-.7,1.2-.37.26-1.03.39-1.98.39h-.59v.81h10.21v-.81h-.74c-1,0-1.68-.14-2.04-.42s-.58-.71-.67-1.29c-.08-.58-.12-1.81-.12-3.68v-5h2.45Z"/>
    <path class="cls-1" d="m199.08,75.1c2.16,0,3.92,1.08,3.92,3.02s-1.76,2.96-3.92,2.96-3.89-1.08-3.89-2.96,1.76-3.02,3.89-3.02Zm0,7.98c3.85,0,7.13-1.91,7.13-4.96s-3.28-4.99-7.13-4.99-7.06,1.88-7.06,4.99,3.24,4.96,7.06,4.96Zm12.4,16.15c-2.1.06-8.01.1-10.48.06-.44,0-.61-.16-.61-.6v-2.26l13.18-.13c.17-.19.37-.64.37-1.14,0-.13-.1-.25-.24-.35l-.64-.29c.27-.6.61-1.91.71-2.7l.47-.95c.07-.19.07-.38-.1-.48-.34-.19-1.22-.57-1.66-.73-.2-.06-.44-.06-.61,0l-1.15.51c-1.55.06-7.2.13-10.31.16.3-.92.51-2.07.51-3.02v-.67c3.68-.45,7.6-1.02,10.11-1.56.03,1.3.17,2.89.3,3.62h1.89c.61-1.34,1.05-3.91,1.05-5.79v-8.65l.1-1.78c0-.38-.14-.64-.44-.76-1.08-.44-3.45-.89-4.87-.95-.3,0-.41.06-.47.19l-.34.99c1.18.41,2.23,1.05,2.74,1.75v9.79c-4.53.83-13.96,1.53-18.93,1.59-1.22.03-2.7-.06-3.92-.25l-.27.45c-.07.16-.03.29.1.41.98.79,2.3,1.62,3.52,2.16.68-.22,2.06-.51,2.81-.57.98-.06,2.1-.16,3.35-.25v.92c0,.67.07,1.59.17,2.35-.78-.03-1.76-.13-2.43-.25l-.27.38c-.03.16-.03.25.1.38.81.64,1.83,1.27,2.94,1.72.84-.22,2.16-.45,2.87-.48,1.28-.06,7.06-.13,9.29-.1.03.57,0,1.91-.07,2.51l-.61.16c-1.28.06-6.89.13-9.19.13-1.05-.1-3.68-.16-4.83-.16-.2,0-.34.06-.37.19l-.14.7c.78.22,1.49.54,1.93.95v2.48c0,1.53.74,2.23,2.77,2.26l15.45-.09c.2,0,.41-.03.54-.16.17-.16.41-.67.41-1.37,0-.29-.24-.51-.54-.57-.68-.13-2.16-.25-3.14-.25l-1.05.51Z"/>
    <path class="cls-1" d="m237.99,72.51c1.19.41,2.21,1.05,2.74,1.75v5.28c-1.45.09-3.4.16-4.32.16-.86,0-1.98-.06-2.77-.19l-.23.41c-.07.13-.03.25.1.38.66.6,1.48,1.14,2.47,1.59.56-.22,1.48-.41,2.04-.48.53-.06,1.68-.13,2.7-.13v4.83c-1.48.1-3.4.13-4.35.13-.89,0-1.98-.06-2.77-.16l-.23.41c-.07.13-.03.22.1.35.66.6,1.48,1.18,2.47,1.62.56-.22,1.45-.45,2.04-.51.53-.03,1.71-.1,2.74-.1v7.63c0,1.43.13,5.28.33,6.52h1.81c.66-2,1.06-5.53,1.06-7.5v-19.65l.13-1.81c0-.38-.13-.64-.46-.76-1.06-.44-3.43-.89-4.81-.95-.3,0-.4.06-.43.19l-.36.99Zm-6.33,15.23l-3.23-3.69c1.19-1.97,2.01-3.94,2.44-5.85.03-.19.07-.51.07-.76,0-.29-.17-.57-.46-.73-.82-.45-3.03-1.11-4.35-1.3-.26-.03-.36.03-.46.16l-.43.83c.82.45,1.65,1.18,1.98,1.78-.99,4.61-4.19,9.95-8.84,14.31-.13.16-.13.29-.03.38l.53.45c.13.1.26.1.46,0,3.23-2.19,5.94-4.8,7.91-7.5l5.24,6.49c.23.29.56.64.82.73.46.19,1.25-.03,1.55-.51.13-.25.17-.6-.03-1.18-.26-.67-.89-1.91-1.39-2.73l-1.78-.86Z"/>
    <path class="cls-1" d="m270.93,83.97c0,1.21.1,3.94.32,4.99h2c.63-1.37,1.05-3.97,1.05-5.85v-8.84l.1-1.78c.04-.38-.1-.64-.46-.76-1.12-.44-3.54-.89-5.04-.95-.32,0-.42.06-.46.19l-.35.99c1.19.41,2.27,1.05,2.83,1.75v10.27Zm-6.16,3.28c.28.25.67.51.95.57.52.13,1.33-.16,1.54-.7.1-.22.04-.57-.25-1.05-.35-.6-1.12-1.65-1.79-2.35l-1.71-.48-4.13-3.21c.88-1.33,1.51-2.67,1.93-4.01.07-.22.1-.48.1-.79,0-.25-.17-.51-.52-.7-.84-.45-3.08-1.11-4.45-1.27-.28-.03-.42,0-.49.13l-.49.86c.88.41,1.68,1.08,2,1.69-1.23,4.13-4.69,8.78-9.52,12.53-.18.13-.18.29-.07.38l.56.45c.14.06.28.06.46-.03,3.89-2.1,7.07-4.74,9.31-7.54l6.58,5.53Zm-3.92,5.21c3.01-.06,6.69-.16,9.8-.16l-.1,5.85-.74.19c-2.14.13-6.3.19-8.82.16l-.14-6.04Zm13.72-1.43c.07-.22.07-.38-.07-.45-.35-.22-1.3-.64-1.79-.83-.21-.06-.45-.06-.67,0l-1.33.51c-2.27.13-7.63.19-9.94.22-1.26-.16-3.5-.35-4.73-.35-.25,0-.35.06-.38.19l-.25.83c.73.25,1.5.7,1.89,1.08l.63,7.35c.04.67.21,1.37.46,1.84h1.89c.28-.29.46-.57.56-.95l12.88-.13c.28-.22.53-.79.53-1.4,0-.19-.1-.35-.32-.45l-.67-.29c.42-1.91.74-4.07.88-5.92l.42-1.27Z"/>
    <path class="cls-1" d="m293.03,87.43c.22.22.57.45.79.48.47.09,1.17-.22,1.33-.73.09-.22.03-.51-.19-.95-.32-.54-.98-1.5-1.52-2.1l-1.45-.29-2.97-2.32c1.39-1.62,2.49-3.31,3.28-4.99l.69-1.05c.13-.19.09-.38-.06-.48-.35-.22-1.29-.67-1.8-.86-.19-.06-.44-.06-.63,0l-1.2.54c-1.55.09-6.79.16-7.92.16-.82,0-1.99-.06-2.9-.22l-.22.41c-.06.13-.06.22.06.38.69.6,1.67,1.3,2.59,1.72.63-.25,1.77-.48,2.37-.51.73-.06,3.6-.1,5.3-.1-2.05,4.29-6.03,9.03-11.18,12.56-.13.13-.13.25,0,.38l.47.45c.09.06.22.06.41-.03,3.57-1.78,6.85-4.23,9.44-6.93l5.3,4.48Zm.16,11.45c-2.15,0-3.79-1.34-3.79-3.53s1.64-3.5,3.79-3.5,3.82,1.34,3.82,3.5-1.64,3.53-3.82,3.53Zm0-9.13c-3.88,0-6.95,2.23-6.95,5.6,0,3.59,3.06,5.98,6.95,5.98s6.98-2.38,6.98-5.98c0-3.37-3.06-5.6-6.98-5.6Zm9.09-8.78l-1.93.1v-6.81l.09-1.78c0-.38-.13-.64-.41-.76-1.01-.44-3.22-.89-4.55-.95-.28,0-.38.06-.44.19l-.32.99c1.07.41,2.05,1.05,2.56,1.75v10.97c0,1.34.09,4.23.28,5.37h1.8c.57-1.49.98-4.29.98-6.23v-.86l5.15-.13c.28,0,.63-.06.82-.25.22-.19.41-.79.38-1.43-.03-.32-.25-.57-.6-.64-.57-.13-1.89-.19-2.81-.16l-1.01.64Z"/>
    <path class="cls-1" d="m327.18,71c1.01.38,1.93.99,2.37,1.62v9.99l-3.73.09v-7.57l.09-1.53c0-.35-.09-.57-.38-.7-.85-.41-2.81-.83-3.95-.89-.28,0-.41.1-.44.22l-.35.92c.92.35,1.77.92,2.18,1.49v12.69c-2.94.73-7.01,1.21-9.57,1.27-.41,0-.57-.22-.57-.6v-9.63l.03-1.59c0-.38-.16-.6-.5-.7-.88-.19-2.84-.35-3.95-.35-.25,0-.41.1-.44.25l-.19.89c.76.22,1.55.67,2.02,1.08v9.73c0,.67.06,1.24.16,1.59.38,1.14,1.26,1.88,2.56,1.88.32,0,.76,0,1.14-.03,2.62-.22,6.31-.99,9.31-2.04v3.37c0,1.37.13,4.67.32,5.95h1.58c.6-1.81.95-4.99.95-6.87v-6.9l3.73-.1v9.67c0,1.43.13,5.12.32,6.3h1.67c.6-1.94.98-5.31.98-7.25v-20.1l.09-1.69c.03-.35-.09-.6-.41-.73-.92-.45-3.03-.86-4.26-.92-.28,0-.38.06-.44.22l-.32.95Z"/>
    <path class="cls-1" d="m362.66,84.03l-1.86.1v-9.83l.09-1.81c.03-.38-.09-.64-.41-.76-1.04-.44-3.28-.89-4.64-.95-.28,0-.35.06-.41.19l-.32.99c1.1.41,2.12,1.05,2.62,1.75v16.19c-2.49.51-6.66,1.02-10.48,1.33l.06-5.79.16-1.62c.03-.32-.06-.51-.38-.6-.79-.22-2.81-.44-3.82-.44-.32,0-.38.06-.41.16l-.22.92c.69.22,1.45.64,1.77,1.05l.09,6.52c-1.14.06-2.15.09-3.03.13-1.17.03-2.65-.06-3.85-.25l-.22.48c-.06.16-.03.25.09.38.92.83,2.27,1.69,3.44,2.19.63-.22,1.99-.54,2.65-.57,3.73-.29,10.54-1.27,14.14-2.16v3.34c0,1.43.13,5.28.28,6.52h1.74c.66-2,1.04-5.53,1.04-7.5v-7.95l5.08-.1c.28,0,.63-.09.82-.25.22-.22.41-.79.38-1.46-.03-.29-.25-.54-.6-.64-.57-.13-1.89-.19-2.81-.16l-1.01.64Zm-11.3,3.47c.19,0,.38-.09.47-.29,1.23-2.64,2.24-6.71,2.37-9.6l.44-1.21c.06-.19.06-.32-.09-.45-.32-.25-1.14-.73-1.55-.95-.19-.06-.44-.06-.6,0l-1.23.64c-1.64.13-7.58.25-8.84.25-.92,0-2.18-.06-3.19-.22l-.25.48c-.06.16-.03.25.09.38.76.67,1.83,1.3,2.84,1.72.73-.25,2.02-.51,2.78-.54.88-.1,4.51-.19,6.28-.16.03,2.64-.13,6.71-.54,9.35-.03.32.06.41.22.45l.79.16Z"/>
    <path class="cls-1" d="m389.94,94.31c-.47.04-1.52.07-2.87.11,1.64-5.11,2.87-12.37,2.97-17.34l.54-1.47c.06-.21.06-.36-.09-.5-.38-.32-1.29-.96-1.8-1.22-.16-.11-.41-.11-.63,0l-1.29.72c-2.24.14-11.71.32-13.35.32-.95,0-2.3-.11-3.38-.32l-.22.54c-.06.14-.06.29.09.43.76.79,1.93,1.64,2.97,2.15.82-.29,2.3-.57,3.16-.61,1.55-.11,7.89-.25,10.58-.25-.09,5.04-.69,12.66-1.55,17.62-5.4.11-13.26.21-14.65.18-1.1-.04-2.65-.18-3.82-.39l-.25.57c-.06.14-.03.29.09.43.82.86,2.12,1.75,3.35,2.25.82-.29,2.59-.64,3.41-.71,1.8-.14,15.44-.32,17.62-.29,1.01,0,3.03.07,3.85.18.38-.21.85-.89.85-1.68,0-.36-.19-.61-.47-.72-.79-.32-2.59-.57-3.82-.64l-1.26.64Z"/>
    <path class="cls-1" d="m401.28,81.54c0,1.52.64,2.19,2.47,2.22l14.74-.22c.19,0,.35-.06.48-.16.16-.19.35-.63.35-1.3,0-.29-.19-.48-.45-.54-.64-.13-2.02-.22-2.95-.19l-.93.48c-1.86.13-7.35.22-9.95.19-.42,0-.58-.16-.58-.57v-2.48l13.26-.19c.19-.16.38-.6.38-1.05,0-.16-.1-.29-.22-.38l-.67-.32c.26-.63.61-2,.71-2.83l.45-.92c.1-.16.06-.35-.1-.48-.29-.22-1.12-.6-1.54-.79-.19-.06-.45-.06-.61,0l-1.09.51c-1.96.1-10.18.22-11.81.19-.8,0-2.28-.09-3.21-.29l-.23.41c-.06.13-.06.22.1.38.74.6,1.77,1.27,2.83,1.71.9-.22,2.15-.41,2.83-.48,1.22-.06,6.74-.16,9.02-.16.03.63,0,2.16-.13,2.73l-.55.13c-1.32.1-7.06.19-9.34.19-1-.09-3.5-.16-4.59-.16-.22,0-.32.06-.35.19l-.16.73c.77.19,1.44.51,1.86.92v2.51Zm13.77,13.97v2.83l-9.82.06.06-2.83,9.76-.06Zm2.67,2.83c.19-.73.35-1.91.35-2.83l.03-3.56.1-1.37c0-.29-.06-.48-.35-.57-.83-.38-2.66-.7-3.82-.79-.29,0-.42.06-.45.19l-.32.92c.74.29,1.44.76,1.8,1.21v2.13l-9.76.06.03-.98.03-1.37c0-.35-.1-.54-.39-.6-.83-.25-2.89-.45-3.95-.45-.29,0-.39.1-.45.19l-.22.86c.74.22,1.54.67,1.89,1.05l.13,6.83c0,.57.13,1.43.39,2h1.64c.23-.22.48-.54.64-.98,3.21-.03,10.47-.06,13.32-.06.19-.19.35-.7.35-1.21,0-.19-.1-.29-.26-.38l-.74-.29Zm1.22-12.48c-2.28.16-17.85.35-19.87.32-1.12-.03-2.7-.16-3.88-.35l-.26.51c-.06.13-.03.25.1.35.83.79,2.15,1.59,3.4,2.03.83-.25,2.63-.57,3.47-.63.71-.06,3.31-.1,6.32-.16v1.05c0,.95.1,2.38.32,3.21h1.99c.45-.92.77-2.6.77-3.84v-.44c3.79-.06,7.45-.06,8.51-.06s3.08.06,3.92.16c.39-.19.87-.79.87-1.49,0-.32-.19-.54-.48-.63-.8-.29-2.63-.51-3.88-.57l-1.28.57Z"/>
  </g>
</svg>