<!DOCTYPE svg PUBLIC "-//W3C//DTD SVG 1.1//EN" "http://www.w3.org/Graphics/SVG/1.1/DTD/svg11.dtd">
<!-- Uploaded to: SVG Repo, www.svgrepo.com, Transformed by: SVG Repo Mixer Tools -->
<svg fill="#000000" width="183px" height="183px" viewBox="0 0 32 32" style="fill-rule:evenodd;clip-rule:evenodd;stroke-linejoin:round;stroke-miterlimit:2;" version="1.1" xml:space="preserve" xmlns="http://www.w3.org/2000/svg" xmlns:serif="http://www.serif.com/" xmlns:xlink="http://www.w3.org/1999/xlink" stroke="#000000" stroke-width="0.00032">
<g id="SVGRepo_bgCarrier" stroke-width="0"/>
<g id="SVGRepo_tracerCarrier" stroke-linecap="round" stroke-linejoin="round"/>
<g id="SVGRepo_iconCarrier">
<path d="M15.002,8l-0.998,0c-0.552,0 -1,0.448 -1,1c0,0.552 0.448,1 1,1l1.002,-0l0.002,1.002c0.001,0.552 0.45,0.999 1.002,0.998c0.552,-0.001 0.999,-0.45 0.998,-1.002l-0.002,-0.998l0.998,0c0.552,0 1,-0.448 1,-1c0,-0.552 -0.448,-1 -1,-1l-1.002,0l-0.002,-1.002c-0.001,-0.552 -0.45,-0.999 -1.002,-0.998c-0.552,0.001 -0.999,0.45 -0.998,1.002l0.002,0.998Z"/>
<path d="M26,9l-0,-4c-0,-0.796 -0.316,-1.559 -0.879,-2.121c-0.562,-0.563 -1.325,-0.879 -2.121,-0.879c-3.463,0 -10.537,0 -14,-0c-0.796,-0 -1.559,0.316 -2.121,0.879c-0.563,0.562 -0.879,1.325 -0.879,2.121l0,22c0,0.796 0.316,1.559 0.879,2.121c0.562,0.563 1.325,0.879 2.121,0.879c2.6,-0 10.316,0 13.999,0c0.552,0 1,-0.448 1,-1c0,-0.552 -0.448,-1 -1,-1c-3.683,0 -11.399,-0 -13.999,-0c-0.265,0 -0.52,-0.105 -0.707,-0.293c-0.188,-0.187 -0.293,-0.442 -0.293,-0.707c-0,-0 -0,-22 -0,-22c0,-0.265 0.105,-0.52 0.293,-0.707c0.187,-0.188 0.442,-0.293 0.707,-0.293l14,0c0.265,-0 0.52,0.105 0.707,0.293c0.188,0.187 0.293,0.442 0.293,0.707c-0,-0 -0,4 -0,4c-0,0.552 0.448,1 1,1c0.552,0 1,-0.448 1,-1Z"/>
<path d="M23.982,14.206c-1.159,0.414 -1.99,1.523 -1.99,2.825c0,1.659 1.333,2.987 2.992,2.987c0.553,0 1.008,0.448 1.008,1.001c0,0.552 -0.448,1 -1,1c-0.552,-0 -1,-0.448 -1,-1c0,-0.552 -0.448,-1 -1,-1c-0.552,-0 -1,0.448 -1,1c0,1.302 0.832,2.412 1.993,2.826l-0.005,1.163c-0.002,0.552 0.444,1.002 0.996,1.004c0.552,0.003 1.002,-0.444 1.004,-0.996l0.005,-1.166c1.168,-0.41 2.007,-1.523 2.007,-2.831c0,-1.655 -1.354,-3.001 -3.008,-3.001c-0.549,0 -0.992,-0.438 -0.992,-0.987c0,-0.552 0.448,-1 1,-1c0.55,0 0.997,0.445 1,0.994l0,0.013c0.004,0.548 0.45,0.993 1,0.993c0.552,0 1,-0.448 1,-1c0,-1.309 -0.84,-2.423 -2.01,-2.832l0.01,-1.179c0.004,-0.552 -0.44,-1.003 -0.992,-1.008c-0.552,-0.004 -1.004,0.441 -1.008,0.992l-0.01,1.202Z"/>
<path d="M11,17.019l8,-0c0.552,-0 1,-0.448 1,-1c-0,-0.552 -0.448,-1 -1,-1l-8,-0c-0.552,-0 -1,0.448 -1,1c-0,0.552 0.448,1 1,1Z"/>
<path d="M11,21.031l8,-0c0.552,-0 1,-0.448 1,-1c-0,-0.552 -0.448,-1 -1,-1l-8,-0c-0.552,-0 -1,0.448 -1,1c-0,0.552 0.448,1 1,1Z"/>
<path d="M11,25.012l8,0c0.552,0 1,-0.448 1,-1c0,-0.552 -0.448,-1 -1,-1l-8,0c-0.552,0 -1,0.448 -1,1c0,0.552 0.448,1 1,1Z"/>
</g>
</svg>