<!DOCTYPE svg PUBLIC "-//W3C//DTD SVG 1.1//EN" "http://www.w3.org/Graphics/SVG/1.1/DTD/svg11.dtd">
<!-- Uploaded to: SVG Repo, www.svgrepo.com, Transformed by: SVG Repo Mixer Tools -->
<svg width="800px" height="800px" viewBox="-2.86 0 64 64" xmlns="http://www.w3.org/2000/svg" fill="#000000">
<g id="SVGRepo_bgCarrier" stroke-width="0"/>
<g id="SVGRepo_tracerCarrier" stroke-linecap="round" stroke-linejoin="round"/>
<g id="SVGRepo_iconCarrier"> <g id="XMLID_10_" transform="translate(-308.785 -50.065)"> <g id="Group_125" data-name="Group 125"> <path id="Path_56" data-name="Path 56" d="M365.685,51.965a5.61,5.61,0,0,1,1.32,4.42l-2.49,18.17a12.635,12.635,0,0,1-3.44,6.65c-2.92,3.24-10.57,13.9-10.57,13.9v6.95a12.018,12.018,0,0,1-12,12.01h-11.52a12.027,12.027,0,0,1-12.01-12.01V91.585a8.19,8.19,0,1,1,4,0v10.47a8.021,8.021,0,0,0,8.01,8.01h11.52a8.019,8.019,0,0,0,8-8.01v-6.95s-7.64-10.66-10.55-13.9a12.579,12.579,0,0,1-3.45-6.65l-2.49-18.17a5.557,5.557,0,0,1,5.52-6.32h2.8a1.993,1.993,0,0,1,2,2v1.57a2,2,0,0,1-3.95.43h-.85a1.539,1.539,0,0,0-1.18.53,1.569,1.569,0,0,0-.38,1.25l2.49,18.17a7.279,7.279,0,0,0,7.19,6.27h9.71a7.279,7.279,0,0,0,7.19-6.27l2.48-18.17a1.521,1.521,0,0,0-.37-1.25,1.539,1.539,0,0,0-1.18-.53h-.74a2,2,0,0,1-3.95-.43v-1.57a2,2,0,0,1,2-2h2.69A5.578,5.578,0,0,1,365.685,51.965Zm-17.18,39.16,5.21-6.85H343.3Zm-27.34-7.48a4.19,4.19,0,1,0-4.19,4.19A4.2,4.2,0,0,0,321.165,83.645Z" fill="#03373d"/> <path id="Path_57" data-name="Path 57" d="M353.715,84.275l-5.21,6.85-5.2-6.85Z" fill="#ccc"/> <circle id="Ellipse_20" data-name="Ellipse 20" cx="4.19" cy="4.19" r="4.19" transform="translate(312.785 79.455)" fill="#d6d6d6"/> </g> </g> </g>
</svg>